<svg viewBox="0 0 108.39 40" xmlns="http://www.w3.org/2000/svg"><path d="m24.18 10.49a1.63 1.63 0 0 1 -.7-.16l-.83-1.21v-8.86l-.06-.34h-21.19a1.57 1.57 0 0 0 -1.53 1.61v36.93a1.57 1.57 0 0 0 1.53 1.61h29.19l-6.13-7-3.58 6.22-4-20.16 17.33 8v-16.64z" fill="#b51e23"/><path d="m34.22 36.42v-8.76l-5.87 2.09z" fill="#b51e23"/><path d="m23.5 10.35 10.72 10.28v-10.14z" fill="#a41e23"/><path d="m22.59-.08-.12 8.94a1.66 1.66 0 0 0 1.71 1.63h10z" fill="#e21d3e"/><path d="m34.22 36.42-5.87-6.67 5.87-2.09v-.59l-17.33-8 4 20.16 3.57-6.23 6.13 7h2.14a1.52 1.52 0 0 0 1.51-1.51v-2.12" fill="#fff"/><g fill="#0b293a"><path d="m43.14 4.45h9.11v2h-6.73v4h5.93v2h-5.93v6h-2.38z"/><path d="m58.41 18.57a4.89 4.89 0 0 1 -2.49-.57 4.15 4.15 0 0 1 -1.64-1.75 6 6 0 0 1 -.58-2.76 6.16 6.16 0 0 1 .56-2.73 4.25 4.25 0 0 1 1.62-1.83 5.19 5.19 0 0 1 5 0 4.15 4.15 0 0 1 1.62 1.79 6.19 6.19 0 0 1 .58 2.8 6.24 6.24 0 0 1 -.55 2.67 4.21 4.21 0 0 1 -1.53 1.72 4.64 4.64 0 0 1 -2.59.66zm0-1.79a2 2 0 0 0 1.33-.44 2.6 2.6 0 0 0 .78-1.21 5.63 5.63 0 0 0 .25-1.76 5.94 5.94 0 0 0 -.22-1.68 2.6 2.6 0 0 0 -.75-1.24 2 2 0 0 0 -1.38-.45 2.14 2.14 0 0 0 -1.36.42 2.68 2.68 0 0 0 -.8 1.2 5.57 5.57 0 0 0 -.26 1.75 6.06 6.06 0 0 0 .23 1.69 2.79 2.79 0 0 0 .77 1.25 2.06 2.06 0 0 0 1.42.47z"/><path d="m65.35 18.37v-10h2.25v2.16a3.65 3.65 0 0 1 .69-1.26 3.1 3.1 0 0 1 1.06-.81 3.18 3.18 0 0 1 1.32-.28h.33a.57.57 0 0 1 .24.07v2.24a.9.9 0 0 0 -.27-.06 1.57 1.57 0 0 0 -.29 0 4.77 4.77 0 0 0 -1.28 0 2.59 2.59 0 0 0 -.94.39 1.84 1.84 0 0 0 -.57.7 2.27 2.27 0 0 0 -.19 1v5.79z"/><path d="m73.21 18.37v-10h2.29v1.47a4 4 0 0 1 1.18-1.14 3.46 3.46 0 0 1 1.9-.48 3.14 3.14 0 0 1 1.07.19 3.45 3.45 0 0 1 1 .54 2.53 2.53 0 0 1 .74.88 3.77 3.77 0 0 1 1.26-1.15 3.39 3.39 0 0 1 1.77-.46 3.68 3.68 0 0 1 1.11.18 2.84 2.84 0 0 1 1 .57 2.91 2.91 0 0 1 .78 1.11 4.38 4.38 0 0 1 .3 1.74v6.55h-2.27v-6.27a2.24 2.24 0 0 0 -.26-1.16 1.43 1.43 0 0 0 -.67-.6 2.12 2.12 0 0 0 -.87-.18 2.46 2.46 0 0 0 -.86.16 1.77 1.77 0 0 0 -.76.54 1.53 1.53 0 0 0 -.32 1v6.5h-2.34v-6.63a1.37 1.37 0 0 0 -.27-.87 1.57 1.57 0 0 0 -.67-.52 2.08 2.08 0 0 0 -.84-.18 2.35 2.35 0 0 0 -.88.18 1.67 1.67 0 0 0 -.74.57 1.49 1.49 0 0 0 -.3 1v6.5z"/><path d="m94 18.57a5.87 5.87 0 0 1 -2-.34 3.73 3.73 0 0 1 -1.56-1 3.41 3.41 0 0 1 -.79-1.84h2.06a1.86 1.86 0 0 0 .47.89 2 2 0 0 0 .82.51 2.85 2.85 0 0 0 1 .16 2.92 2.92 0 0 0 1.45-.31 1 1 0 0 0 .55-1 .93.93 0 0 0 -.31-.75 2.09 2.09 0 0 0 -1-.43l-1.89-.46a4.82 4.82 0 0 1 -2-.92 2.34 2.34 0 0 1 -.8-1.79 2.73 2.73 0 0 1 .45-1.57 3 3 0 0 1 1.34-1.1 5.58 5.58 0 0 1 2.21-.4 4.57 4.57 0 0 1 2.79.78 2.64 2.64 0 0 1 1.08 2.21h-2a1.51 1.51 0 0 0 -.61-1 2.17 2.17 0 0 0 -1.26-.37 2.66 2.66 0 0 0 -1.36.32 1.05 1.05 0 0 0 -.53 1 .81.81 0 0 0 .41.71 3.89 3.89 0 0 0 1.21.45l1.79.43a3.89 3.89 0 0 1 1.26.52 2.83 2.83 0 0 1 .77.72 2.28 2.28 0 0 1 .39.8 2.62 2.62 0 0 1 .11.75 2.73 2.73 0 0 1 -.49 1.65 3.13 3.13 0 0 1 -1.4 1 5.81 5.81 0 0 1 -2.16.38z"/><path d="m48.15 35.66a7.66 7.66 0 0 1 -2-.25 5.9 5.9 0 0 1 -1.75-.77 4.37 4.37 0 0 1 -1.31-1.26 3.8 3.8 0 0 1 -.63-1.76h2.42a2.57 2.57 0 0 0 .61 1.18 2.83 2.83 0 0 0 1.13.73 4.2 4.2 0 0 0 1.49.25 5 5 0 0 0 1.56-.23 2.67 2.67 0 0 0 1.11-.67 1.57 1.57 0 0 0 .41-1.09 1.53 1.53 0 0 0 -.3-1 2.12 2.12 0 0 0 -.83-.65 5.56 5.56 0 0 0 -1.25-.41l-2.56-.56a4.64 4.64 0 0 1 -2.42-1.17 3.36 3.36 0 0 1 -.93-2.44 3.59 3.59 0 0 1 .67-2.2 4.44 4.44 0 0 1 1.85-1.46 6.64 6.64 0 0 1 2.66-.51 6.93 6.93 0 0 1 2.93.56 4.3 4.3 0 0 1 1.8 1.51 3.89 3.89 0 0 1 .62 2.07h-2.37a2.38 2.38 0 0 0 -.5-1.32 2.22 2.22 0 0 0 -1-.7 4.53 4.53 0 0 0 -1.41-.21 4.21 4.21 0 0 0 -1.08.13 2.67 2.67 0 0 0 -.87.4 1.86 1.86 0 0 0 -.59.63 1.78 1.78 0 0 0 -.2.85 1.44 1.44 0 0 0 .44 1.08 3.81 3.81 0 0 0 1.68.71l2.51.56a5.28 5.28 0 0 1 1.88.69 3.51 3.51 0 0 1 1.59 2.26 6.3 6.3 0 0 1 .12 1.18 3.17 3.17 0 0 1 -.67 2 4.48 4.48 0 0 1 -1.96 1.36 7.41 7.41 0 0 1 -2.85.51z"/><path d="m57.75 31a3.59 3.59 0 0 0 .27 1.5 2.3 2.3 0 0 0 .83 1 2.44 2.44 0 0 0 1.36.37 2.8 2.8 0 0 0 1.44-.37 1.83 1.83 0 0 0 .81-1.14h2.15a3.43 3.43 0 0 1 -.83 1.77 4.27 4.27 0 0 1 -1.58 1.09 5.16 5.16 0 0 1 -1.94.38 5.07 5.07 0 0 1 -2.53-.61 4.3 4.3 0 0 1 -1.73-1.69 5.62 5.62 0 0 1 -.61-2.71 6.39 6.39 0 0 1 .61-2.72 4.45 4.45 0 0 1 1.58-1.87 4.63 4.63 0 0 1 2.54-.68 4.68 4.68 0 0 1 2.48.62 3.93 3.93 0 0 1 1.52 1.75 6.14 6.14 0 0 1 .52 2.63v.68zm0-1.46h4.67a3.21 3.21 0 0 0 -.25-1.3 2.11 2.11 0 0 0 -.76-.93 2.39 2.39 0 0 0 -1.3-.34 2.2 2.2 0 0 0 -1.3.38 2.37 2.37 0 0 0 -.8 1 2.74 2.74 0 0 0 -.26 1.22z"/><path d="m66.8 35.47v-10h2.26v2.16a3.61 3.61 0 0 1 .69-1.27 2.91 2.91 0 0 1 1-.8 3 3 0 0 1 1.32-.28 1.88 1.88 0 0 1 .34 0 .59.59 0 0 1 .24.06v2.25a1 1 0 0 0 -.28-.07h-.29a4.39 4.39 0 0 0 -1.28.06 2.46 2.46 0 0 0 -.93.39 1.66 1.66 0 0 0 -.57.69 2.32 2.32 0 0 0 -.2 1v5.79z"/><path d="m83.12 25.51-3.67 10h-1.85l-3.68-10h2.15l2.39 7h.12l2.38-7z"/><path d="m87.23 21.55v2.22h-2.32v-2.22zm0 4v10h-2.23v-10z"/><path d="m94.15 25.32a4.33 4.33 0 0 1 2 .46 3.66 3.66 0 0 1 1.42 1.28 4.09 4.09 0 0 1 .64 1.87h-2a2 2 0 0 0 -.33-.87 1.88 1.88 0 0 0 -.7-.67 2.09 2.09 0 0 0 -1.07-.25 2.23 2.23 0 0 0 -1.81.83 3.85 3.85 0 0 0 -.7 2.54 4.27 4.27 0 0 0 .71 2.49 2.22 2.22 0 0 0 1.9.94 2 2 0 0 0 1.06-.28 2.14 2.14 0 0 0 .73-.66 2.4 2.4 0 0 0 .33-.83h1.95a3.67 3.67 0 0 1 -.63 1.8 3.82 3.82 0 0 1 -1.43 1.24 4.4 4.4 0 0 1 -2 .45 4.86 4.86 0 0 1 -2.43-.6 4.21 4.21 0 0 1 -1.67-1.75 6 6 0 0 1 -.61-2.78 6.12 6.12 0 0 1 .49-2.72 4.32 4.32 0 0 1 1.64-1.81 4.65 4.65 0 0 1 2.51-.68z"/><path d="m102.26 31a3.75 3.75 0 0 0 .27 1.5 2.3 2.3 0 0 0 .83 1 2.44 2.44 0 0 0 1.36.37 2.8 2.8 0 0 0 1.44-.37 1.83 1.83 0 0 0 .81-1.14h2.15a3.43 3.43 0 0 1 -.83 1.77 4.27 4.27 0 0 1 -1.58 1.09 5.16 5.16 0 0 1 -1.94.38 5.07 5.07 0 0 1 -2.53-.61 4.3 4.3 0 0 1 -1.71-1.75 5.62 5.62 0 0 1 -.61-2.71 6.39 6.39 0 0 1 .56-2.72 4.45 4.45 0 0 1 1.61-1.81 4.63 4.63 0 0 1 2.54-.68 4.68 4.68 0 0 1 2.48.62 3.93 3.93 0 0 1 1.52 1.75 6.14 6.14 0 0 1 .52 2.63v.68zm0-1.46h4.67a3.21 3.21 0 0 0 -.25-1.3 2.11 2.11 0 0 0 -.76-.93 2.39 2.39 0 0 0 -1.3-.34 2.2 2.2 0 0 0 -1.3.38 2.37 2.37 0 0 0 -.8 1 2.88 2.88 0 0 0 -.26 1.22z"/></g></svg>