<svg id="Layer_1" data-name="Layer 1" xmlns="http://www.w3.org/2000/svg" viewBox="0 0 39.71 14.65"><defs><style>.cls-1{fill:#b51e23;}.cls-2{fill:#a41e23;}.cls-3{fill:#e21d3e;}.cls-4{fill:#fff;}.cls-5{fill:#0b293a;}</style></defs><path class="cls-1" d="M8.88,3.86a.55.55,0,0,1-.26-.06l-.3-.44V.13l0-.13H.56A.57.57,0,0,0,0,.59V14.07a.57.57,0,0,0,.56.58H11.21L9,12.1,7.67,14.37,6.21,7l6.33,2.91V3.86Z"/><polygon class="cls-1" points="12.54 13.32 12.54 10.13 10.4 10.89 12.54 13.32"/><polygon class="cls-2" points="8.63 3.81 12.54 7.56 12.54 3.86 8.63 3.81"/><path class="cls-3" d="M8.29,0h0l0,3.26a.6.6,0,0,0,.63.6h3.66Z"/><path class="cls-4" d="M12.54,13.32,10.4,10.89l2.14-.76V9.91L6.21,7l1.46,7.36L9,12.09l2.23,2.56H12a.55.55,0,0,0,.55-.55v-.78"/><path class="cls-5" d="M15.82,1.65h3.25V2.3H16.59V3.87h2.2v.64h-2.2V6.74h-.77Z"/><path class="cls-5" d="M21.33,6.81a1.8,1.8,0,0,1-.89-.22A1.47,1.47,0,0,1,19.85,6a2.25,2.25,0,0,1-.21-1,2.35,2.35,0,0,1,.2-1,1.46,1.46,0,0,1,.58-.67,1.84,1.84,0,0,1,1.8,0,1.5,1.5,0,0,1,.59.65,2.42,2.42,0,0,1,.2,1,2.3,2.3,0,0,1-.19,1,1.53,1.53,0,0,1-.57.66A1.68,1.68,0,0,1,21.33,6.81Zm0-.58a.81.81,0,0,0,.52-.17,1,1,0,0,0,.32-.46,2,2,0,0,0,.1-.68,2.19,2.19,0,0,0-.09-.66,1,1,0,0,0-.3-.48.86.86,0,0,0-.55-.17.81.81,0,0,0-.52.16,1,1,0,0,0-.32.45,2.1,2.1,0,0,0-.11.7,2,2,0,0,0,.1.65,1,1,0,0,0,.3.48A.83.83,0,0,0,21.33,6.23Z"/><path class="cls-5" d="M23.89,6.74V3.1h.72v.75a1.39,1.39,0,0,1,.25-.45,1.21,1.21,0,0,1,.39-.28A1.14,1.14,0,0,1,25.71,3h.14l.1,0v.72l-.12,0h-.12a1.27,1.27,0,0,0-.44,0,1.16,1.16,0,0,0-.34.14.67.67,0,0,0-.21.26.84.84,0,0,0-.08.37V6.74Z"/><path class="cls-5" d="M26.72,6.74V3.1h.73v.53a1.68,1.68,0,0,1,.42-.42A1.22,1.22,0,0,1,28.56,3a1.12,1.12,0,0,1,.4.07,1,1,0,0,1,.37.2.76.76,0,0,1,.27.32,1.43,1.43,0,0,1,.46-.42A1.31,1.31,0,0,1,30.71,3a1.44,1.44,0,0,1,.4.06,1.06,1.06,0,0,1,.39.21,1.12,1.12,0,0,1,.29.4,1.73,1.73,0,0,1,.11.65V6.74h-.76V4.43A.85.85,0,0,0,31,4a.5.5,0,0,0-.26-.24.8.8,0,0,0-.34-.07,1.06,1.06,0,0,0-.34.06.89.89,0,0,0-.3.22.6.6,0,0,0-.12.4v2.4h-.75V4.27a.52.52,0,0,0-.11-.33.58.58,0,0,0-.26-.21.77.77,0,0,0-.32-.07.84.84,0,0,0-.35.07.73.73,0,0,0-.3.22.61.61,0,0,0-.12.39v2.4Z"/><path class="cls-5" d="M34.2,6.81a2.08,2.08,0,0,1-.71-.12,1.33,1.33,0,0,1-.55-.38,1.24,1.24,0,0,1-.28-.66h.67A.77.77,0,0,0,33.5,6a.92.92,0,0,0,.31.2,1.23,1.23,0,0,0,.39.06,1.13,1.13,0,0,0,.56-.12A.43.43,0,0,0,35,5.75a.44.44,0,0,0-.11-.3.75.75,0,0,0-.36-.16l-.73-.17a1.73,1.73,0,0,1-.72-.34.8.8,0,0,1-.27-.64,1,1,0,0,1,.16-.57,1,1,0,0,1,.47-.4A2,2,0,0,1,34.2,3a1.59,1.59,0,0,1,1,.28.94.94,0,0,1,.39.79h-.66a.52.52,0,0,0-.22-.39.81.81,0,0,0-.51-.14,1.07,1.07,0,0,0-.53.12.43.43,0,0,0-.2.4.32.32,0,0,0,.15.28,1.41,1.41,0,0,0,.45.17l.69.17a1.49,1.49,0,0,1,.44.19,1.09,1.09,0,0,1,.27.25,1,1,0,0,1,.14.28,1.45,1.45,0,0,1,0,.28,1,1,0,0,1-.18.59,1,1,0,0,1-.49.37A2,2,0,0,1,34.2,6.81Z"/><path class="cls-5" d="M17.6,13.05a2.44,2.44,0,0,1-.71-.1,2,2,0,0,1-.62-.27,1.56,1.56,0,0,1-.47-.45,1.44,1.44,0,0,1-.23-.63h.78a1,1,0,0,0,.24.46,1.11,1.11,0,0,0,.44.28,1.69,1.69,0,0,0,.56.09,1.91,1.91,0,0,0,.61-.09,1,1,0,0,0,.43-.27.6.6,0,0,0,.15-.42.64.64,0,0,0-.1-.37.77.77,0,0,0-.3-.26,1.85,1.85,0,0,0-.47-.16l-1-.22a1.75,1.75,0,0,1-.89-.45,1.22,1.22,0,0,1-.33-.86A1.34,1.34,0,0,1,16,8.54,1.57,1.57,0,0,1,16.62,8a2.24,2.24,0,0,1,.95-.19A2.34,2.34,0,0,1,18.62,8a1.64,1.64,0,0,1,.64.54,1.33,1.33,0,0,1,.22.74h-.77a.9.9,0,0,0-.19-.51.94.94,0,0,0-.4-.28,1.91,1.91,0,0,0-.54-.08,1.68,1.68,0,0,0-.4.05,1.25,1.25,0,0,0-.35.16.92.92,0,0,0-.23.25.64.64,0,0,0-.09.34.55.55,0,0,0,.18.43,1.55,1.55,0,0,0,.65.27l.94.22a1.88,1.88,0,0,1,.65.24,1.29,1.29,0,0,1,.39.38,1.16,1.16,0,0,1,.18.43,2.09,2.09,0,0,1,.05.42,1.18,1.18,0,0,1-.24.72,1.6,1.6,0,0,1-.67.5A2.72,2.72,0,0,1,17.6,13.05Z"/><path class="cls-5" d="M21,11.33a1.55,1.55,0,0,0,.11.59.94.94,0,0,0,.32.41,1,1,0,0,0,.54.15,1.05,1.05,0,0,0,.57-.15.75.75,0,0,0,.31-.44h.69a1.16,1.16,0,0,1-.3.63,1.38,1.38,0,0,1-.56.39,1.81,1.81,0,0,1-.69.14,1.78,1.78,0,0,1-.91-.23,1.59,1.59,0,0,1-.62-.64,2.12,2.12,0,0,1-.22-1,2.26,2.26,0,0,1,.21-1,1.49,1.49,0,0,1,.58-.68A1.57,1.57,0,0,1,22,9.27a1.66,1.66,0,0,1,.89.23,1.39,1.39,0,0,1,.54.63,2.18,2.18,0,0,1,.19.95v.25Zm0-.48h1.84a1.24,1.24,0,0,0-.1-.52.73.73,0,0,0-.3-.37.87.87,0,0,0-.5-.14.84.84,0,0,0-.52.15.94.94,0,0,0-.32.39A1.38,1.38,0,0,0,21,10.85Z"/><path class="cls-5" d="M24.42,13V9.34h.72v.75a1.39,1.39,0,0,1,.25-.45,1.21,1.21,0,0,1,.39-.28,1.18,1.18,0,0,1,.46-.09h.14l.1,0V10l-.11,0-.13,0a1.58,1.58,0,0,0-.44,0,.82.82,0,0,0-.33.14.62.62,0,0,0-.22.26.84.84,0,0,0-.08.37V13Z"/><path class="cls-5" d="M30.26,9.34,28.94,13H28.3L27,9.34h.69L28.59,12h.05l.92-2.68Z"/><path class="cls-5" d="M31.72,7.9v.74H31V7.9Zm0,1.44V13H31V9.34Z"/><path class="cls-5" d="M34.27,9.27a1.53,1.53,0,0,1,.72.16,1.34,1.34,0,0,1,.52.45,1.46,1.46,0,0,1,.24.66H35.1a.81.81,0,0,0-.14-.33.68.68,0,0,0-.28-.25.86.86,0,0,0-.41-.1.9.9,0,0,0-.71.32,1.51,1.51,0,0,0-.27,1,1.64,1.64,0,0,0,.25,1,.86.86,0,0,0,.75.36.82.82,0,0,0,.68-.35.87.87,0,0,0,.13-.32h.64a1.31,1.31,0,0,1-.24.64,1.34,1.34,0,0,1-.51.43,1.73,1.73,0,0,1-.72.16,1.79,1.79,0,0,1-.88-.22,1.43,1.43,0,0,1-.6-.64,2.26,2.26,0,0,1-.22-1,2.33,2.33,0,0,1,.2-1,1.54,1.54,0,0,1,.59-.67A1.65,1.65,0,0,1,34.27,9.27Z"/><path class="cls-5" d="M37.15,11.33a1.55,1.55,0,0,0,.11.59.94.94,0,0,0,.32.41,1,1,0,0,0,.54.15,1,1,0,0,0,.56-.15.67.67,0,0,0,.31-.44h.7a1.16,1.16,0,0,1-.3.63,1.38,1.38,0,0,1-.56.39,1.81,1.81,0,0,1-.69.14,1.78,1.78,0,0,1-.91-.23,1.53,1.53,0,0,1-.62-.64,2.12,2.12,0,0,1-.22-1,2.41,2.41,0,0,1,.2-1,1.56,1.56,0,0,1,1.5-.93A1.66,1.66,0,0,1,39,9.5a1.39,1.39,0,0,1,.54.63,2.18,2.18,0,0,1,.19.95v.25Zm0-.48H39a1.24,1.24,0,0,0-.1-.52.73.73,0,0,0-.3-.37,1,1,0,0,0-1,0,1,1,0,0,0-.31.39A1.19,1.19,0,0,0,37.15,10.85Z"/></svg>